Coordinates
version=1
nRows=13
nColumns=36
inDegrees=yes

Units are S.I. units (second, meters, Newtons, ...)
If the header above contains a line with 'inDegrees', this indicates whether rotational values are in degrees (yes) or radians (no).

endheader
time	pelvis_tilt	pelvis_list	pelvis_rotation	pelvis_tx	pelvis_ty	pelvis_tz	hip_flexion_r	hip_adduction_r	hip_rotation_r	knee_angle_r	knee_angle_r_beta	ankle_angle_r	subtalar_angle_r	mtp_angle_r	hip_flexion_l	hip_adduction_l	hip_rotation_l	knee_angle_l	knee_angle_l_beta	ankle_angle_l	subtalar_angle_l	mtp_angle_l	lumbar_extension	lumbar_bending	lumbar_rotation	arm_flex_r	arm_add_r	arm_rot_r	elbow_flex_r	pro_sup_r	arm_flex_l	arm_add_l	arm_rot_l	elbow_flex_l	pro_sup_l
      0.00000000	      2.14825496	      2.75769624	      6.45341276	      1.23650075	      0.92691475	      0.14631510	     -1.46625831	     -0.89894495	      2.96100616	      8.32128198	      0.14523377	      9.21961998	     -5.08712629	     -6.60917209	      4.78331873	     -0.53046483	     -0.38380267	     18.12127289	      0.31627588	     11.10322480	    -11.83514266	     -6.60917209	    -10.73226762	     -2.50026743	     -2.14381829	     34.56969857	     -0.82835517	     60.64507138	    114.92435540	     85.69939268	     43.71927302	     -1.23648456	     63.77756656	    114.50636313	     88.24743743
      0.01666670	      2.21059884	      2.12127377	      6.17837636	      1.23750637	      0.92471803	      0.14499726	     -1.56856995	     -0.13872082	      4.20216938	      8.31064318	      0.14504809	      9.92305457	     -4.82199729	     -6.80344116	      4.57331742	     -1.25562181	     -1.26980494	     16.62688586	      0.29019390	     11.31678195	    -11.77978425	     -6.80344116	    -11.91751249	     -1.08278017	     -0.58235732	     37.35406669	     -2.39470957	     67.88584874	    118.46452543	     98.25672175	     44.34946403	     -0.67216523	     61.74187368	    118.22412638	    102.83810897
      0.03333330	      2.40141183	      2.01677639	      6.19660819	      1.23715951	      0.92265309	      0.14448518	     -2.03446626	      0.07550892	      4.94747103	      7.95062937	      0.13876466	      9.75836823	     -5.01465532	     -6.94206206	      3.83389877	     -1.56540432	     -1.31670745	     14.74491926	      0.25734739	     11.23725364	    -11.46366748	     -6.94206206	    -12.15449512	     -1.05685433	      0.32408480	     36.65618084	     -0.65537363	     64.76179116	    119.58217709	    102.10338655	     45.69385202	     -0.03065045	     62.73600993	    118.29308600	    108.30202928
      0.05000000	      1.65601833	      1.82265499	      6.47361434	      1.23732157	      0.91886009	      0.14342704	     -1.28158192	      0.10698828	      4.44859347	      7.88545992	      0.13762724	     10.25021815	     -4.53046152	     -7.04101058	      4.50650399	     -1.81736415	     -1.17886650	     13.96302095	      0.24370069	     11.94020883	    -11.23019425	     -7.04101058	    -11.11097607	     -0.78923690	      0.59782716	     36.17437483	      0.56732852	     63.90567468	    119.30851895	    102.40962491	     46.19611531	      0.28665975	     62.88830974	    118.58690964	    109.03397104
      0.06666670	      1.25650068	      1.71640300	      6.32683183	      1.24177403	      0.91948182	      0.13997893	     -0.87928350	      0.08575395	      4.31871483	      8.02314079	      0.14003022	     10.62912818	     -4.43248137	     -7.04607612	      4.41906333	     -1.86954775	     -1.09419192	     13.30205840	      0.23216472	     12.65287467	    -11.10080259	     -7.04607612	    -10.60418712	     -0.59644778	      1.03076166	     35.51634534	      0.86412814	     64.18806360	    119.17209536	    102.43938107	     46.08756758	      0.80269002	     62.90078387	    118.75985636	    109.01281548
      0.08333330	      0.17672578	      1.46522636	      6.17165947	      1.23734622	      0.92085446	      0.14385587	      0.74724361	      0.20194381	      3.82954542	      8.80118443	      0.15360965	     11.08252494	     -3.74776356	     -7.05579736	      5.73986725	     -2.18336617	     -1.56514633	     13.72544703	      0.23955424	     13.42143952	    -10.47079647	     -7.05579736	     -9.65709546	     -0.38416395	      1.73059871	     35.06203447	      1.08451906	     64.27428717	    118.53479300	    102.43205547	     46.07459055	      1.13790913	     63.28045657	    118.84652731	    108.92926511
      0.10000000	     -0.72494105	      1.42239099	      5.86930555	      1.24223209	      0.91773085	      0.13998918	      1.95396347	      0.06388807	      3.39343545	      9.36528988	      0.16345514	     11.32040729	     -3.06345760	     -7.06484176	      6.46475823	     -2.15076713	     -2.25186347	     13.70940847	      0.23927432	     13.92426185	     -9.68460907	     -7.06484176	     -8.63588084	     -0.35959656	      2.22124352	     34.45469170	      1.04484494	     64.51951890	    118.68136811	    102.38248914	     45.59780646	      1.47398733	     63.42911358	    119.15800607	    108.76232968
      0.11666670	     -1.52108397	      1.32426409	      5.68601374	      1.24239393	      0.91714043	      0.13981063	      3.19654242	      0.01840750	      2.73467727	     10.15233925	      0.17719175	     11.71464588	     -1.97361408	     -7.13469657	      7.30168148	     -2.20525138	     -2.99437367	     14.11786312	      0.24640319	     14.61881726	     -8.63441145	     -7.13469657	     -7.77400807	     -0.22871579	      2.62804380	     33.95407763	      1.03350388	     64.43304430	    118.43886637	    101.20191288	     45.25889949	      1.80580174	     63.76729288	    119.29540449	    107.59094785
      0.13333330	     -2.31872890	      1.29066344	      5.42046606	      1.23798415	      0.91602786	      0.13580249	      4.52502866	     -0.09967171	      2.40497014	     11.00447391	      0.19206430	     11.83156082	     -1.46542681	     -7.14477402	      8.12026535	     -2.15317385	     -3.68547889	     14.31780302	      0.24989280	     14.87737328	     -7.92103732	     -7.14477402	     -7.05394625	     -0.10148716	      2.68971384	     34.11874688	      0.81037953	     64.69557903	    118.32015053	    101.23989212	     45.37140319	      1.95024698	     63.94205106	    119.41640814	    107.52607061
      0.15000000	     -2.76941844	      1.29742571	      5.20219497	      1.23797940	      0.91508964	      0.13565700	      5.37861965	     -0.22099352	      1.99709061	     11.69864591	      0.20417989	     12.06588111	     -0.71958239	     -7.19790956	      8.46310220	     -2.10377287	     -4.59615818	     14.32838885	      0.25007756	     15.15755765	     -6.93121599	     -7.19790956	     -6.62155810	     -0.06234823	      2.72189606	     34.26747288	      1.17414024	     64.83416363	    118.03627400	    100.35119327	     45.56883015	      1.89662751	     63.73452936	    119.18412927	    106.52294913
      0.16666670	     -3.06361896	      1.31376881	      5.00793630	      1.23793798	      0.91521615	      0.13579764	      5.95981051	     -0.29472760	      1.85097498	     12.20987340	      0.21310249	     12.11468437	     -0.38017022	     -7.23920165	      8.60652107	     -2.06931462	     -5.35704836	     14.17619244	      0.24742123	     15.16741331	     -6.23304017	     -7.23920165	     -6.34965227	     -0.03889200	      2.84370216	     34.37552298	      1.46841770	     65.01254482	    117.74331618	    100.08162510	     45.66543390	      1.79716603	     63.65100946	    118.97527786	    106.24241170
      0.18333330	     -3.18321598	      1.34174137	      4.92578080	      1.23788249	      0.91192099	      0.13502332	      6.31546413	     -0.34955256	      1.78335424	     12.67078180	      0.22114686	     12.17436382	     -0.26856281	     -7.26545405	      8.52234260	     -1.98278566	     -5.85937158	     13.93018894	      0.24312766	     15.09271822	     -5.85624309	     -7.26545405	     -6.15160399	     -0.03044086	      2.86406674	     34.68936515	      1.78115732	     64.98754978	    117.89528199	     98.75470897	     45.99427680	      1.86958939	     63.51597111	    118.91688708	    104.66363162
      0.20000000	     -3.17216616	      1.35772203	      4.85624869	      1.23783879	      0.91479820	      0.13555894	      6.39845076	     -0.37437521	      1.81164152	     12.91233965	      0.22536284	     12.17959141	     -0.22273735	     -7.33219766	      8.24663502	     -1.96143917	     -6.45734190	     13.55357247	      0.23655446	     15.00243905	     -5.27620103	     -7.33219766	     -6.19165791	     -0.02015509	      3.04469675	     34.58064534	      2.17255704	     64.89305913	    117.39371398	     99.18609069	     45.91180431	      1.87915117	     63.50000628	    118.61570362	    105.52622151
